<svg fill="none" viewBox="0 0 24 24">
    <path clip-rule="evenodd" d="m1.25 12c0-5.93706 4.81294-10.75 10.75-10.75 5.9371 0 10.75 4.81294 10.75 10.75 0 5.9371-4.8129 10.75-10.75 10.75-5.93706 0-10.75-4.8129-10.75-10.75zm4-4c0-.41421.33579-.75.75-.75h2c.41421 0 .75.33579.75.75s-.33579.75-.75.75h-2c-.41421 0-.75-.33579-.75-.75zm0 4c0-.4142.33579-.75.75-.75h4c.4142 0 .75.3358.75.75s-.3358.75-.75.75h-4c-.41421 0-.75-.3358-.75-.75zm.75 3.25c-.41421 0-.75.3358-.75.75s.33579.75.75.75h5c.4142 0 .75-.3358.75-.75s-.3358-.75-.75-.75zm7.25.75c0-.4142.3358-.75.75-.75h4c.4142 0 .75.3358.75.75s-.3358.75-.75.75h-4c-.4142 0-.75-.3358-.75-.75zm-.25-4.75c-.4142 0-.75.3358-.75.75s.3358.75.75.75h5c.4142 0 .75-.3358.75-.75s-.3358-.75-.75-.75zm-2.75-3.25c0-.41421.3358-.75.75-.75h7c.4142 0 .75.33579.75.75s-.3358.75-.75.75h-7c-.4142 0-.75-.33579-.75-.75z" fill="#1DB954" fill-rule="evenodd"/>
</svg>