<svg width="22" height="22" viewBox="0 0 22 22" fill="none" xmlns="http://www.w3.org/2000/svg">
<path d="M20.9419 0H1.05801C0.473688 0 0 0.473688 0 1.05801V20.942C0 21.5263 0.473688 22 1.05801 22H20.942C21.5263 22 22 21.5263 22 20.942V1.05801C22 0.473688 21.5263 0 20.9419 0ZM15.4395 9.05484C15.1781 9.57745 14.5426 9.78915 14.02 9.52802L12.3267 8.68136V13.4183C12.3267 15.187 10.8878 16.6259 9.11908 16.6259C7.35038 16.6259 5.91143 15.187 5.91143 13.4183C5.91143 11.6496 7.35038 10.2107 9.11908 10.2107H10.2107V6.96944C10.2107 6.18314 11.0396 5.67212 11.7419 6.02312L14.9663 7.63534C15.4889 7.89662 15.7007 8.53218 15.4395 9.05484Z" fill="#F1F1F1"/>
</svg>
