<svg viewBox="0 0 14 13" fill="none" xmlns="http://www.w3.org/2000/svg">
    <path d="M10.0915 5.29081L2.30823 0.319597C1.98842 0.114881 1.6558 0.00683594 1.37103 0.00683594C0.745821 0.00683594 0.331318 0.493774 0.331318 1.27736V11.73C0.331318 12.1128 0.451189 12.4326 0.628898 12.6552C0.809329 12.8809 1.0916 13.0003 1.39655 13.0003C1.6812 13.0003 2.00067 12.8921 2.32037 12.6877L10.0966 7.71644C10.5965 7.39652 10.8706 6.96592 10.8705 6.50342C10.8705 6.04112 10.5921 5.61052 10.0915 5.29081Z" fill="#f1f1f1"/>
    <path d="M12.9182 0L12.5964 0.000842453C12.1751 0.000842453 11.8104 0.319711 11.8104 0.711452V12.2785C11.8104 12.6707 12.1691 12.9926 12.591 12.9926L12.9328 12.9966C13.3525 12.9945 13.6687 12.6699 13.6687 12.2792V0.710715C13.6687 0.318974 13.3398 0 12.9182 0Z" fill="#f1f1f1"/>
</svg>
