<svg viewBox="0 0 12 13" xmlns="http://www.w3.org/2000/svg">
    <path d="M3.35016 7.70919L10.0215 12.6804C10.2956 12.8851 10.5807 12.9932 10.8248 12.9932C11.3607 12.9932 11.716 12.5062 11.716 11.7226V1.27C11.716 0.887213 11.6133 0.567396 11.4609 0.344778C11.3063 0.119106 11.0643 -0.000311852 10.803 -0.000311852C10.559 -0.000311852 10.2851 0.107943 10.0111 0.312343L3.34579 5.28356C2.9173 5.60348 2.68235 6.03408 2.68245 6.49658C2.68245 6.95888 2.92109 7.38948 3.35016 7.70919Z" fill="#f1f1f1"/>
    <path d="M0.927299 13L1.20307 12.9992C1.56419 12.9992 1.87681 12.6803 1.87681 12.2885V0.721457C1.87681 0.329294 1.56935 0.0073719 1.20774 0.0073719L0.914784 0.00337029C0.555 0.00545025 0.28399 0.330137 0.28399 0.720825V12.2893C0.28399 12.681 0.565887 13 0.927299 13Z" fill="#f1f1f1"/>
</svg>
